<svg xmlns="http://www.w3.org/2000/svg" xml:space="preserve" x="0px" y="0px" viewBox="0 0 512 512"><path fill="#0085FF" d="M110.984 60.309C169.68 104.525 232.824 194.165 256 242.269v127.056c0-2.704-1.04.352-3.28 6.936-12.096 35.648-59.344 174.776-167.384 63.552-56.888-58.56-30.552-117.12 73-134.8-59.24 10.112-125.84-6.6-144.112-72.12C8.96 214.045 0 97.949 0 82.269c0-78.544 68.632-53.856 110.984-21.96zm290.032 0C342.32 104.525 279.176 194.165 256 242.269v127.056c0-2.704 1.04.352 3.28 6.936 12.096 35.648 59.344 174.776 167.384 63.552 56.888-58.56 30.552-117.12-73-134.8 59.24 10.112 125.84-6.6 144.112-72.12C503.04 214.045 512 97.949 512 82.269c0-78.544-68.624-53.856-110.984-21.96z"/></svg>